<svg width="25" height="25" viewBox="0 0 25 25" fill="none" xmlns="http://www.w3.org/2000/svg">
<g clip-path="url(#clip0_1200_3835)">
<path d="M19.1406 0H5.85938C2.62333 0 0 2.62333 0 5.85938V19.1406C0 22.3767 2.62333 25 5.85938 25H19.1406C22.3767 25 25 22.3767 25 19.1406V5.85938C25 2.62333 22.3767 0 19.1406 0Z" fill="#242938"/>
<path d="M10.4519 4.76758H5.93631C5.03709 4.76758 4.29793 5.53535 4.29793 6.48604C4.26571 7.40361 4.97245 8.17109 5.85643 8.20439H10.5002L10.4519 4.76758Z" fill="#073042"/>
<path d="M20.6879 20.0494H5.9373C5.02188 20.0494 4.29883 19.282 4.29883 18.3311V6.46973C4.29883 7.42041 5.03799 8.18789 5.9373 8.20449H18.2938C18.2938 8.20449 20.704 7.98789 20.704 9.87305V20.0494H20.6879Z" fill="#4285F4"/>
<path d="M13.809 13.9766C14.4678 13.4595 14.5963 12.4919 14.0986 11.8244C13.8252 11.4574 13.4074 11.2239 12.9573 11.2071H13.0056C13.0906 11.1906 13.178 11.1906 13.2631 11.2071V10.2562C13.2631 10.1394 13.2146 10.0394 13.1183 9.98945C12.9735 9.90595 12.7969 9.95605 12.7166 10.1061C12.6844 10.1562 12.6684 10.2062 12.6844 10.2729V11.2404C11.8811 11.3739 11.3187 12.1581 11.4469 13.0091V13.0257C11.5114 13.4261 11.7205 13.7932 12.0417 14.0267L9.32617 20.0658H11.0937L12.3469 17.2965C12.4918 16.9627 12.8772 16.8127 13.2146 16.9795C13.3435 17.0463 13.4557 17.163 13.5199 17.2965L14.8217 20.0658H16.6211L13.809 13.9766ZM12.8933 13.7097C12.379 13.7097 11.9773 13.2759 11.9773 12.7422C11.9773 12.2081 12.3951 11.7911 12.9092 11.8077C13.1502 11.8077 13.3595 11.9079 13.5359 12.0749C13.9055 12.4417 13.9055 13.0424 13.552 13.4261C13.3914 13.593 13.1502 13.7097 12.8933 13.7097Z" fill="#3870B2"/>
<path d="M9.47266 5.60156H15.8033V6.80264H9.47266V5.60156Z" fill="white"/>
<path d="M12.4115 11.7913C12.9094 11.7913 13.3275 12.2251 13.3115 12.7589C13.3115 13.2761 12.8935 13.7099 12.3793 13.6932C11.8813 13.6932 11.4795 13.2595 11.4795 12.7424C11.4795 12.4921 11.5758 12.2584 11.753 12.0751C11.9295 11.8914 12.1703 11.7913 12.4115 11.7913ZM12.765 11.2406V10.2398C12.765 10.123 12.7169 10.023 12.6205 9.97278C12.476 9.88938 12.2991 9.93947 12.2184 10.0897C12.1862 10.1397 12.1703 10.1898 12.1862 10.2565V11.2241C11.3829 11.3574 10.8205 12.1418 10.9495 12.9926V13.0093C11.0138 13.4094 11.2224 13.7766 11.5438 14.01L8.12136 21.6342C7.99294 21.9014 8.00896 22.2348 8.18572 22.4851C8.44246 22.8687 8.94099 22.9688 9.31013 22.702C9.43904 22.6185 9.53542 22.4851 9.59958 22.3516L11.8813 17.2799C12.0259 16.9463 12.4115 16.7961 12.749 16.9629C12.8775 17.0297 12.9898 17.1466 13.0542 17.2799L15.3841 22.3016C15.5771 22.7186 16.0589 22.8854 16.4609 22.6851C16.8623 22.4851 17.0231 21.9845 16.8302 21.5674L13.3115 13.9768C13.9541 13.4428 14.0667 12.4587 13.5522 11.7913C13.3597 11.5243 13.0864 11.3408 12.765 11.2406Z" fill="#073042"/>
<path d="M14.8699 6.66953C14.6286 6.66953 14.4358 6.48584 14.4358 6.23574C14.4358 6.11895 14.4839 5.98555 14.5643 5.90205C14.7411 5.73535 14.9983 5.73535 15.1751 5.90205C15.2565 5.98761 15.3025 6.10092 15.3035 6.21904C15.2875 6.46934 15.1107 6.65283 14.8699 6.66953ZM10.1137 6.65283C9.87227 6.65283 9.67978 6.45264 9.67978 6.21904C9.67978 6.10225 9.72812 5.98555 9.80811 5.90205C9.95283 5.71865 10.2264 5.68516 10.4028 5.83555H10.4189C10.5955 6.00225 10.6115 6.28574 10.4512 6.46934L10.4028 6.53584C10.3227 6.61934 10.2104 6.66953 10.0975 6.66953L10.1137 6.65283ZM14.9983 3.9668L15.8499 2.43203C15.898 2.34863 15.8659 2.24854 15.8018 2.18184C15.7214 2.14844 15.6412 2.16514 15.5931 2.23193L14.7091 3.8167C13.2952 3.16611 11.6885 3.16611 10.2905 3.8167L9.42285 2.24854C9.39062 2.19854 9.32617 2.14844 9.26172 2.14844C9.19766 2.14844 9.1333 2.18184 9.10098 2.24854C9.06895 2.29863 9.06895 2.38193 9.10098 2.43203L9.96894 3.9668C8.4582 4.81738 7.47822 6.41934 7.33398 8.1876H17.6493C17.5211 6.40273 16.5247 4.81738 15.0144 3.9668" fill="#3DDC84"/>
<path d="M19.2744 11.5077H18.5995C18.5672 11.5241 18.5352 11.5575 18.5352 11.6075V22.7018C18.5352 22.7517 18.5672 22.7851 18.6157 22.7851H19.3226C20.142 22.7851 20.8008 22.0843 20.8008 21.2503V9.95605C20.8008 10.8068 20.142 11.4909 19.3226 11.4909H19.2744V11.5077Z" fill="#073042"/>
</g>
<defs>
<clipPath id="clip0_1200_3835">
<rect width="25" height="25" fill="white"/>
</clipPath>
</defs>
</svg>
