<svg width="25" height="25" viewBox="0 0 25 25" fill="none" xmlns="http://www.w3.org/2000/svg">
<g clip-path="url(#clip0_1200_3872)">
<path d="M19.1406 0H5.85938C2.62333 0 0 2.62333 0 5.85938V19.1406C0 22.3767 2.62333 25 5.85938 25H19.1406C22.3767 25 25 22.3767 25 19.1406V5.85938C25 2.62333 22.3767 0 19.1406 0Z" fill="#242938"/>
<path d="M8.27598 10.9337C8.27598 11.1714 8.30166 11.3641 8.34658 11.5055C8.40361 11.6645 8.47235 11.8192 8.55225 11.9681C8.58437 12.0194 8.59717 12.0708 8.59717 12.1158C8.59717 12.1801 8.55859 12.2443 8.4751 12.3085L8.07031 12.5784C8.0125 12.6169 7.95469 12.6362 7.90332 12.6362C7.83906 12.6362 7.7748 12.6041 7.71055 12.5463C7.62401 12.4532 7.54657 12.3521 7.4793 12.2443C7.40749 12.1209 7.34102 11.9944 7.28008 11.8652C6.77897 12.4564 6.14935 12.7519 5.39121 12.7519C4.85156 12.7519 4.42109 12.5977 4.10625 12.2893C3.7915 11.9809 3.63086 11.5697 3.63086 11.0558C3.63086 10.5096 3.82363 10.0663 4.21553 9.73223C4.60742 9.39814 5.12783 9.23105 5.78955 9.23105C6.00801 9.23105 6.23291 9.25039 6.47061 9.28252C6.7083 9.31465 6.95244 9.36602 7.20947 9.42383V8.95479C7.20947 8.4665 7.10664 8.12598 6.90752 7.92686C6.70186 7.72764 6.35498 7.63135 5.86025 7.63135C5.63535 7.63135 5.4041 7.65703 5.16641 7.71484C4.92871 7.77266 4.69736 7.84336 4.47246 7.9333C4.3994 7.96595 4.32431 7.99384 4.24766 8.0168C4.20273 8.02969 4.17051 8.03613 4.14482 8.03613C4.05498 8.03613 4.00986 7.97187 4.00986 7.83691V7.52207C4.00986 7.41934 4.02275 7.34219 4.05488 7.29727C4.08701 7.25234 4.14482 7.20732 4.23477 7.1623C4.45964 7.04668 4.72949 6.95033 5.04434 6.87324C5.35908 6.78965 5.69316 6.75117 6.04658 6.75117C6.81113 6.75117 7.37002 6.92461 7.72988 7.27148C8.0832 7.61846 8.26309 8.14531 8.26309 8.85205V10.9337H8.27598ZM5.66758 11.9103C5.87949 11.9103 6.09795 11.8717 6.3293 11.7945C6.56055 11.7175 6.76611 11.5761 6.93965 11.3834C7.04238 11.2613 7.11953 11.1264 7.15801 10.9722C7.19648 10.818 7.22227 10.6316 7.22227 10.4133V10.1434C7.02745 10.096 6.83014 10.0595 6.63125 10.0342C6.43091 10.0088 6.22918 9.99596 6.02725 9.99561C5.59678 9.99561 5.28203 10.0792 5.07002 10.2526C4.85801 10.4261 4.75518 10.6702 4.75518 10.9915C4.75518 11.2935 4.83232 11.5183 4.99287 11.6725C5.14717 11.8331 5.37207 11.9103 5.66758 11.9103ZM10.8265 12.6041C10.7108 12.6041 10.6337 12.5848 10.5823 12.5398C10.531 12.5013 10.4859 12.4113 10.4475 12.2893L8.9377 7.32295C8.89902 7.19443 8.87979 7.11094 8.87979 7.06592C8.87979 6.96318 8.93115 6.90527 9.03398 6.90527H9.66357C9.78564 6.90527 9.86924 6.92461 9.91416 6.96953C9.96553 7.00811 10.0041 7.09805 10.0427 7.22012L11.122 11.4733L12.1243 7.22012C12.1564 7.0916 12.1949 7.0082 12.2464 6.96953C12.2978 6.93105 12.3877 6.90537 12.5033 6.90537H13.0173C13.1394 6.90537 13.2229 6.92461 13.2743 6.96953C13.3257 7.00811 13.3707 7.09805 13.3964 7.22012L14.4115 11.5247L15.5229 7.22012C15.5615 7.0916 15.6065 7.0082 15.6515 6.96953C15.7028 6.93105 15.7864 6.90537 15.9021 6.90537H16.4995C16.6023 6.90537 16.6602 6.95674 16.6602 7.06592C16.6602 7.09814 16.6537 7.13018 16.6473 7.16875C16.6409 7.20732 16.628 7.25859 16.6023 7.32939L15.054 12.2957C15.0154 12.4242 14.9704 12.5077 14.919 12.5463C14.8677 12.5848 14.7841 12.6105 14.6749 12.6105H14.1224C14.0003 12.6105 13.9168 12.5912 13.8654 12.5463C13.814 12.5013 13.769 12.4178 13.7434 12.2893L12.7475 8.14531L11.7581 12.2828C11.726 12.4113 11.6874 12.4948 11.636 12.5398C11.5846 12.5848 11.4946 12.6041 11.379 12.6041H10.8265ZM19.0823 12.7775C18.7482 12.7775 18.4142 12.739 18.0929 12.6619C17.7717 12.5848 17.5211 12.5013 17.354 12.4049C17.2513 12.3471 17.1806 12.2828 17.1549 12.225C17.1299 12.1683 17.1168 12.1071 17.1163 12.0451V11.7175C17.1163 11.5825 17.1677 11.5183 17.2641 11.5183C17.3027 11.5183 17.3412 11.5247 17.3797 11.5376C17.4183 11.5504 17.4761 11.5761 17.5403 11.6019C17.7673 11.7016 18.0042 11.777 18.2471 11.8267C18.4987 11.8778 18.7548 11.9036 19.0116 11.9038C19.4164 11.9038 19.7312 11.8331 19.9496 11.6918C20.1681 11.5504 20.2837 11.3448 20.2837 11.0814C20.2837 10.9016 20.2259 10.7537 20.1103 10.6316C19.9946 10.5096 19.7762 10.4004 19.4613 10.2976L18.5298 10.0085C18.0607 9.86074 17.7138 9.64229 17.5018 9.35322C17.2897 9.07051 17.1806 8.75557 17.1806 8.42158C17.1806 8.15179 17.2384 7.91406 17.354 7.7084C17.4696 7.50283 17.6238 7.32295 17.8166 7.18164C18.0094 7.03379 18.2278 6.92461 18.4848 6.84746C18.7418 6.77031 19.0116 6.73828 19.2943 6.73828C19.4356 6.73828 19.5834 6.74473 19.7248 6.76396C19.8726 6.7832 20.0074 6.80889 20.1424 6.83467C20.2709 6.8668 20.393 6.89893 20.5086 6.9375C20.6242 6.97598 20.7142 7.01452 20.7784 7.05312C20.8684 7.10449 20.9326 7.15586 20.9712 7.21367C21.0097 7.2651 21.029 7.33581 21.029 7.42578V7.72773C21.029 7.8626 20.9776 7.9333 20.8812 7.9333C20.8298 7.9333 20.7463 7.90762 20.6371 7.85615C20.2709 7.68916 19.8597 7.60566 19.4035 7.60566C19.0373 7.60566 18.7482 7.66348 18.549 7.78555C18.3498 7.90762 18.2471 8.09395 18.2471 8.35732C18.2471 8.53721 18.3113 8.69141 18.4398 8.81348C18.5684 8.93555 18.8061 9.05762 19.1466 9.1668L20.0589 9.45586C20.5214 9.60371 20.8556 9.80928 21.0547 10.0728C21.2538 10.3362 21.3502 10.6381 21.3502 10.9722C21.3502 11.2484 21.2924 11.499 21.1832 11.7175C21.0676 11.9359 20.9134 12.1286 20.7142 12.2828C20.515 12.4435 20.2772 12.5591 20.0011 12.6427C19.7119 12.7326 19.41 12.7775 19.0823 12.7775Z" fill="white"/>
<path fill-rule="evenodd" clip-rule="evenodd" d="M20.2966 15.9C18.1829 17.4612 15.1119 18.29 12.4712 18.29C8.77065 18.29 5.43608 16.9215 2.91763 14.6472C2.71841 14.4673 2.89839 14.2232 3.13608 14.3645C5.8602 15.9449 9.22036 16.9023 12.6961 16.9023C15.0412 16.9023 17.6175 16.414 19.9882 15.4117C20.3416 15.2511 20.6435 15.643 20.2966 15.9Z" fill="#FF9900"/>
<path fill-rule="evenodd" clip-rule="evenodd" d="M21.1771 14.8982C20.9073 14.5513 19.3911 14.7311 18.7036 14.8146C18.498 14.8404 18.4659 14.6604 18.6522 14.5256C19.86 13.6775 21.8453 13.9217 22.0766 14.2043C22.3079 14.4934 22.0124 16.4787 20.8816 17.4296C20.7081 17.5773 20.5411 17.5002 20.6182 17.3075C20.8752 16.6715 21.447 15.2387 21.1771 14.8982Z" fill="#FF9900"/>
</g>
<defs>
<clipPath id="clip0_1200_3872">
<rect width="25" height="25" fill="white"/>
</clipPath>
</defs>
</svg>
