<svg width="40" height="40" viewBox="0 0 40 40" fill="none" xmlns="http://www.w3.org/2000/svg">
<rect width="40" height="40" rx="10" fill="#DBF5F0"/>
<path fill-rule="evenodd" clip-rule="evenodd" d="M22.0323 11.2308C22.0323 11.1696 22.0085 11.1109 21.9661 11.0676C21.9238 11.0243 21.8663 11 21.8065 11H15.4839C14.8251 11 14.1933 11.2674 13.7275 11.7435C13.2617 12.2196 13 12.8652 13 13.5385V26.4615C13 27.1348 13.2617 27.7804 13.7275 28.2565C14.1933 28.7326 14.8251 29 15.4839 29H24.5161C25.1749 29 25.8067 28.7326 26.2725 28.2565C26.7383 27.7804 27 27.1348 27 26.4615V17.3665C27 17.3053 26.9762 17.2466 26.9339 17.2033C26.8915 17.16 26.8341 17.1357 26.7742 17.1357H22.7097C22.53 17.1357 22.3577 17.0628 22.2307 16.9329C22.1036 16.8031 22.0323 16.627 22.0323 16.4434V11.2308ZM22.7097 20.2308C22.8893 20.2308 23.0616 20.3037 23.1887 20.4335C23.3157 20.5634 23.3871 20.7395 23.3871 20.9231C23.3871 21.1067 23.3157 21.2828 23.1887 21.4126C23.0616 21.5424 22.8893 21.6154 22.7097 21.6154H17.2903C17.1107 21.6154 16.9384 21.5424 16.8113 21.4126C16.6843 21.2828 16.6129 21.1067 16.6129 20.9231C16.6129 20.7395 16.6843 20.5634 16.8113 20.4335C16.9384 20.3037 17.1107 20.2308 17.2903 20.2308H22.7097ZM22.7097 23.9231C22.8893 23.9231 23.0616 23.996 23.1887 24.1258C23.3157 24.2557 23.3871 24.4318 23.3871 24.6154C23.3871 24.799 23.3157 24.9751 23.1887 25.1049C23.0616 25.2348 22.8893 25.3077 22.7097 25.3077H17.2903C17.1107 25.3077 16.9384 25.2348 16.8113 25.1049C16.6843 24.9751 16.6129 24.799 16.6129 24.6154C16.6129 24.4318 16.6843 24.2557 16.8113 24.1258C16.9384 23.996 17.1107 23.9231 17.2903 23.9231H22.7097Z" fill="#37BE9E"/>
<path d="M23.3871 11.5298C23.3871 11.36 23.5614 11.252 23.6906 11.3582C23.8002 11.4486 23.8974 11.5538 23.9823 11.6738L26.7037 15.548C26.7652 15.6366 26.6983 15.7511 26.5917 15.7511H23.6129C23.553 15.7511 23.4956 15.7268 23.4532 15.6835C23.4109 15.6402 23.3871 15.5815 23.3871 15.5203V11.5298Z" fill="#37BE9E"/>
</svg>
