<svg width="25" height="25" viewBox="0 0 25 25" fill="none" xmlns="http://www.w3.org/2000/svg">
<g clip-path="url(#clip0_1200_3923)">
<path d="M19.1406 0H5.85938C2.62333 0 0 2.62333 0 5.85938V19.1406C0 22.3767 2.62333 25 5.85938 25H19.1406C22.3767 25 25 22.3767 25 19.1406V5.85938C25 2.62333 22.3767 0 19.1406 0Z" fill="#242938"/>
<mask id="mask0_1200_3923" style="mask-type:luminance" maskUnits="userSpaceOnUse" x="5" y="2" width="14" height="21">
<path d="M5.95703 2.73438H18.9805V22.2656H5.95703V2.73438Z" fill="white"/>
</mask>
<g mask="url(#mask0_1200_3923)">
<path d="M9.21426 22.2653C11.0111 22.2653 12.4694 20.807 12.4694 19.0102V15.7549H9.21426C7.41738 15.7549 5.95898 17.2133 5.95898 19.0102C5.95898 20.807 7.41738 22.2653 9.21426 22.2653Z" fill="#0ACF83"/>
<path d="M5.95898 12.5003C5.95898 10.7034 7.41738 9.24512 9.21426 9.24512H12.4694V15.7555H9.21426C7.41738 15.7555 5.95898 14.2972 5.95898 12.5003Z" fill="#A259FF"/>
<path d="M5.95898 5.98955C5.95898 4.19268 7.41738 2.73438 9.21426 2.73438H12.4694V9.24482H9.21426C7.41738 9.24482 5.95898 7.78643 5.95898 5.98955Z" fill="#F24E1E"/>
<path d="M12.4688 2.73438H15.7239C17.5208 2.73438 18.9792 4.19268 18.9792 5.98955C18.9792 7.78643 17.5208 9.24482 15.7239 9.24482H12.4688V2.73438Z" fill="#FF7262"/>
<path d="M18.9792 12.5003C18.9792 14.2972 17.5208 15.7555 15.7239 15.7555C13.9271 15.7555 12.4688 14.2972 12.4688 12.5003C12.4688 10.7034 13.9271 9.24512 15.7239 9.24512C17.5208 9.24512 18.9792 10.7034 18.9792 12.5003Z" fill="#1ABCFE"/>
</g>
</g>
<defs>
<clipPath id="clip0_1200_3923">
<rect width="25" height="25" fill="white"/>
</clipPath>
</defs>
</svg>
