<svg width="25" height="25" viewBox="0 0 25 25" fill="none" xmlns="http://www.w3.org/2000/svg">
<g clip-path="url(#clip0_1200_4019)">
<path d="M19.1406 0H5.85938C2.62333 0 0 2.62333 0 5.85938V19.1406C0 22.3767 2.62333 25 5.85938 25H19.1406C22.3767 25 25 22.3767 25 19.1406V5.85938C25 2.62333 22.3767 0 19.1406 0Z" fill="#242938"/>
<path d="M10.0293 20.3375C10.724 20.6165 11.478 20.7828 12.2737 20.8125C13.3484 20.8481 14.3637 20.6284 15.278 20.2068C14.1855 19.7793 13.194 19.15 12.3509 18.3662C11.8 19.2457 10.9914 19.9341 10.0352 20.3375H10.0293Z" fill="#FF9100"/>
<path d="M12.345 18.3663C10.4154 16.585 9.24567 14.0022 9.34661 11.17C9.34661 11.081 9.35255 10.986 9.35848 10.8969C8.50202 10.6784 7.60318 10.6886 6.75192 10.9266C6.23536 11.8291 5.92661 12.8622 5.88505 13.9725C5.78411 16.8344 7.51786 19.3341 10.0294 20.3435C10.9883 19.9445 11.7981 19.2551 12.345 18.3722V18.3663Z" fill="#FFC400"/>
<path d="M12.3466 18.3659C12.8094 17.6248 13.0695 16.7751 13.1006 15.9019C13.1838 13.515 11.5806 11.4666 9.36002 10.8906C9.36002 10.9797 9.34814 11.0747 9.34814 11.1638C9.29848 12.5086 9.54079 13.8483 10.0584 15.0906C10.576 16.3329 11.3567 17.4483 12.3466 18.36V18.3659Z" fill="#FF9100"/>
<path d="M12.8506 4.1875C11.5859 5.19688 10.5884 6.53281 9.98281 8.07062C9.6288 8.97234 9.41843 9.92402 9.35938 10.8909C10.4603 11.1755 11.4311 11.8273 12.1113 12.7385C12.7914 13.6497 13.1402 14.7658 13.1 15.9022C13.0725 16.776 12.8122 17.6267 12.3459 18.3662C13.1992 19.1559 14.1918 19.78 15.2731 20.2069C17.47 19.1916 19.0256 17.0125 19.1147 14.4297C19.1741 12.7553 18.5328 11.265 17.6244 10.0063C16.6625 8.67625 12.8506 4.19344 12.8506 4.19344V4.1875Z" fill="#DD2C00"/>
</g>
<defs>
<clipPath id="clip0_1200_4019">
<rect width="25" height="25" fill="white"/>
</clipPath>
</defs>
</svg>
