<svg width="25" height="25" viewBox="0 0 25 25" fill="none" xmlns="http://www.w3.org/2000/svg">
<g clip-path="url(#clip0_1200_3947)">
<path d="M19.1406 0H5.85938C2.62333 0 0 2.62333 0 5.85938V19.1406C0 22.3767 2.62333 25 5.85938 25H19.1406C22.3767 25 25 22.3767 25 19.1406V5.85938C25 2.62333 22.3767 0 19.1406 0Z" fill="#242938"/>
<path d="M8.76739 18.9381C8.06056 18.3821 7.30645 17.8491 6.79132 17.0986C5.70714 15.7749 4.87237 14.2424 4.30167 12.6321C3.95675 11.5848 3.83868 10.4621 3.39395 9.45529C2.92882 8.72414 3.47374 7.92492 4.27462 7.6925C4.63116 7.62404 5.25821 7.28771 4.50138 7.52805C3.82286 8.0259 3.75723 7.07619 4.45294 7.01603C4.92774 6.95295 5.10255 6.56418 4.94024 6.21428C4.43048 5.88186 6.17618 5.51652 5.29786 5.02062C4.38282 4.03332 6.57774 3.84338 6.03614 4.96447C5.90655 5.82668 7.56993 4.80646 7.18399 5.80207C7.57628 6.28019 8.65294 5.91086 8.62618 6.58166C9.19766 6.62092 9.39376 7.10168 9.93018 7.13859C10.4861 7.38967 11.494 7.58752 11.6831 8.21398C11.1316 8.6507 9.8544 7.31203 9.79298 8.52072C9.95958 10.3064 9.9172 12.1458 10.5705 13.8462C10.8795 14.8758 11.6286 15.6863 12.3051 16.4882C12.9524 17.2736 13.8292 17.8265 14.7229 18.292C15.5068 18.6617 16.352 18.907 17.2064 19.0608C17.5528 18.7957 18.1647 17.8104 18.7053 18.2259C18.7309 18.6928 17.6323 19.2019 18.6535 19.1502C19.2532 18.9694 19.6691 19.6141 20.163 19.0325C20.618 19.5714 22.054 18.6882 21.7303 19.7898C21.2926 20.0722 20.6541 19.9015 20.2157 20.29C19.4928 19.9289 18.9173 20.6131 18.117 20.5266C17.2282 20.6858 16.324 20.75 15.423 20.7514C13.9447 20.6346 12.4352 20.5854 11.0289 20.0707C10.2367 19.8405 9.46358 19.3894 8.76739 18.9381ZM10.0158 19.479C10.7894 19.8136 11.5458 20.1661 12.3936 20.2725C13.7386 20.4596 15.1275 20.7473 16.4774 20.4849C15.8664 20.209 15.2349 20.5923 14.6262 20.2876C13.8963 20.4446 13.1129 20.2476 12.3709 20.1505C11.527 19.7746 10.6163 19.5162 9.82608 19.0282C8.83858 18.6676 10.3367 19.4908 10.6034 19.5574C11.2207 19.9078 9.92462 19.3779 9.7419 19.2322C9.22491 18.9422 9.15899 19.0029 9.69073 19.2974C9.79776 19.36 9.90362 19.4257 10.0158 19.479ZM8.54386 18.4388C9.29347 18.7165 8.54054 17.9117 8.19708 17.9584C8.04483 17.6945 7.61563 17.5277 7.91847 17.3858C7.37374 17.5749 7.34786 16.6667 7.09181 16.7965C6.51563 16.6146 6.86759 15.9699 6.18116 15.5741C6.11847 15.1571 5.49923 14.7953 5.30167 14.1662C5.21446 13.8442 4.60206 12.9192 4.97823 13.78C5.29854 14.6087 5.86212 15.3184 6.33116 16.0272C6.69542 16.7021 7.1254 17.4074 7.78868 17.8285C8.01231 18.043 8.22813 18.3716 8.54386 18.4388ZM6.38438 16.0679C6.52149 16.3129 6.41056 15.9547 6.38438 16.0679ZM9.44161 18.7717C9.60763 18.6974 9.20284 18.678 9.44161 18.7717ZM9.84854 18.9201C9.80636 18.7152 9.6627 19.0347 9.84854 18.9201ZM10.3578 19.1325C10.6003 18.9017 9.98409 18.987 10.3578 19.1325ZM11.2309 19.6192C11.3782 19.4013 10.7592 19.5369 11.2309 19.6192ZM9.5545 18.4505C9.93106 18.2069 9.06798 18.4472 9.5545 18.4505ZM9.93653 18.641C9.92589 18.5122 9.8004 18.6988 9.93653 18.641ZM11.8463 19.833C12.1532 20.0268 13.639 20.2576 12.7087 19.9124C12.553 19.9452 10.9836 19.4686 11.8463 19.833ZM8.81456 17.4718C8.78468 17.3426 8.338 17.3292 8.81456 17.4718ZM9.70362 17.99C9.93497 17.8286 9.22335 17.8654 9.70362 17.99ZM10.4514 18.4485C10.7834 18.3233 9.9128 18.3227 10.4514 18.4485ZM8.45274 17.0779C8.81309 17.3541 9.90557 17.1132 9.0045 16.9129C8.59434 16.6943 7.66993 16.5446 8.30001 17.0447L8.45274 17.0779ZM10.9579 18.6068C11.1079 18.3511 10.3286 18.4608 10.9579 18.6068ZM10.1967 18.0018C11.0775 18.251 9.45597 17.4447 9.97931 17.9101L10.0953 17.9626L10.1967 18.0018ZM11.7229 18.8839C12.5571 18.8919 10.9693 18.7689 11.7229 18.8839ZM8.13175 16.5951C8.09923 16.4398 7.92589 16.6082 8.13175 16.5951ZM13.134 19.6755C13.1563 19.3948 12.8618 19.8843 13.134 19.6755ZM9.55548 17.467C9.50499 17.3193 9.29473 17.461 9.55548 17.467ZM8.21095 16.4977C8.68985 16.4689 7.55518 16.2866 8.21095 16.4977ZM6.61817 15.4681C6.5586 15.2385 6.09698 15.0554 6.61817 15.4681ZM10.7996 18.1218C10.7583 18.1437 10.7118 18.0217 10.7996 18.1218ZM13.4023 19.719C13.394 19.566 13.2606 19.7768 13.4023 19.719ZM10.5692 17.8839C10.6161 17.6869 10.1608 17.8242 10.5692 17.8839ZM8.63028 16.6551C8.98663 16.6169 8.05948 16.4142 8.63028 16.6551ZM11.9102 18.6932C12.4654 18.4732 11.3691 18.5858 11.9102 18.6932ZM10.2041 17.5351C10.8441 17.6176 9.44268 17.0998 10.0637 17.4887L10.2041 17.5351ZM12.4281 18.9026C13.0256 18.5453 12.8286 19.7389 13.4418 19.0033C14.0466 18.5617 12.9194 19.5493 13.6649 19.0821C14.2039 18.7216 15.0001 19.253 15.5031 19.4264C15.8649 19.4086 16.2164 19.7392 16.5873 19.5381C17.3011 19.3458 15.1914 19.2529 15.7444 18.9118C15.0912 19.1019 14.6087 18.6852 14.2873 18.2668C13.5546 18.0976 12.7075 17.7231 12.3419 17.0747C12.1928 16.8313 12.5572 17.109 12.2132 16.7111C11.7717 16.3184 11.5513 15.8727 11.2549 15.3953C10.9008 15.2065 10.8596 14.6505 10.8238 15.3767C10.8266 14.9184 10.3963 14.6099 10.2913 14.7381C10.2895 14.2968 10.7518 14.518 10.4281 14.1914C10.3585 13.734 10.1291 13.2572 10.0602 12.7407C9.95304 12.4918 10.045 11.9586 9.69454 12.5222C9.56681 13.1179 9.65216 11.7903 9.85069 12.228C10.1114 11.7813 9.75714 11.8338 9.74268 11.8958C9.91241 11.519 9.85011 10.9843 9.69835 11.1882C9.78878 10.7887 9.84132 9.71799 9.5629 9.90773C9.73165 9.48996 9.88292 7.99611 9.1504 8.56564C8.85352 8.56984 8.33956 8.67346 8.09649 8.79426C8.85841 9.21418 8.01993 8.94592 7.70977 8.87922C7.66934 9.26789 7.36212 9.09973 6.97833 9.10354C7.59132 9.17941 6.67989 9.73049 6.32823 9.51643C5.87149 9.73469 6.72237 10.2795 6.33731 10.448C6.38468 10.702 5.6377 10.3563 5.6964 10.9428C5.25304 10.7563 5.63536 11.6385 5.85714 11.3402C6.61124 11.5443 6.388 12.0095 6.40723 12.4515C6.28429 12.7091 5.80059 11.8461 6.29942 11.8862C5.90587 11.2468 5.86407 11.655 5.53702 11.9521C5.46095 11.9736 6.3713 12.3746 5.80001 12.573C6.30255 12.6505 6.3169 13.0903 6.41915 13.3686C6.7213 13.6832 6.65938 13.0212 7.02091 13.3992C6.7922 13.0624 5.80938 12.4501 6.60069 12.6465C6.59649 12.3074 6.45753 12.0341 6.70001 12.0407C6.94005 11.606 6.44854 13.1127 6.98966 12.5602C7.13946 12.4947 7.17657 12.1248 7.44591 12.595C7.83692 12.9798 7.58712 13.2586 7.03546 12.9063C7.13409 13.2411 7.77345 13.3608 7.65333 13.8844C7.78067 14.3448 7.95889 14.1753 8.11417 14.1487C8.23604 14.5961 8.30518 14.2671 8.31095 14.0541C8.86886 14.1736 8.73819 14.5033 8.9127 14.7337C9.29708 14.9072 8.36251 13.5575 9.02247 14.3279C9.71681 14.9548 9.28282 15.2165 8.65977 15.116C9.05411 15.0842 9.18126 15.6492 9.67462 15.6294C10.1244 15.8434 10.429 16.6654 9.65362 16.3232C9.38468 16.0807 8.43292 15.7816 9.21026 16.2428C9.92823 16.5752 10.4984 16.7741 11.1909 17.1914C11.6864 17.5452 11.9005 17.9504 12.0884 18.0306C11.6719 18.2295 10.8332 17.8718 11.456 17.7621C11.0676 17.6914 10.6307 17.4949 11.0027 17.9789C11.3191 18.2431 12.1235 18.2151 12.2678 18.2449C12.1455 18.5144 11.9358 18.5358 12.2728 18.5567C11.8968 18.7571 12.3933 18.788 12.4281 18.9026ZM11.6593 16.7313C11.4305 16.492 11.3714 16.0439 11.6187 16.4338C11.7454 16.4847 12.0249 17.166 11.6593 16.7313ZM14.1633 18.3218C14.306 18.3125 14.1674 18.4302 14.1633 18.3218ZM11.2981 16.1446C11.3808 16.4236 11.2893 15.7829 11.2981 16.1446ZM11.0492 15.8098C11.4119 15.9672 10.7614 15.2538 11.0492 15.8098ZM8.03331 13.7282C8.20235 13.6831 8.11651 14.0174 8.03331 13.7282ZM10.4336 15.0292C10.5556 15.3564 10.5374 14.6394 10.4336 15.0292ZM8.7379 13.8502C8.9879 14.052 8.61837 13.6351 8.7379 13.8502ZM10.1932 14.3167C9.92052 13.7059 10.3861 13.983 10.2534 14.4168L10.1932 14.3167ZM7.6835 12.643C7.56163 12.4427 7.36007 11.8547 7.42491 11.6752C7.4837 11.9675 8.04659 12.9331 7.70108 12.0752C7.31925 11.3561 8.15743 12.3087 8.24366 12.488C8.2838 12.6665 8.00811 12.4393 8.19483 12.8577C7.85421 12.3814 7.99376 13.1208 7.6835 12.643ZM6.90792 12.1086C7.08546 12.428 6.93985 11.6427 6.90792 12.1086ZM7.25684 12.2286C7.53907 12.7189 7.42325 11.8771 7.25684 12.2286ZM6.41759 11.5794C6.12882 11.2925 5.91983 11.028 6.43106 11.4014C6.62804 11.4091 5.99346 10.7998 6.47852 11.2079C6.98858 11.3009 6.73048 12.0443 6.41759 11.5794ZM6.85841 11.5679C7.02608 11.4018 6.94747 11.7316 6.85841 11.5679ZM7.1297 11.6549C7.43829 11.8547 6.8754 11.1783 7.1297 11.6549ZM6.59044 11.1396C5.75098 10.3925 7.64522 11.5302 6.72755 11.278L6.59044 11.1396ZM8.99561 12.537C8.63233 12.3193 8.89932 11.0036 9.02315 11.9034C9.37638 11.7892 9.00362 12.3681 9.2671 12.3627C9.22559 12.7279 9.10772 12.8593 8.99561 12.537ZM9.88516 13.0628C9.96016 13.3339 9.92081 12.6663 9.88516 13.0628ZM9.73067 12.9101C9.77071 12.7407 9.73477 13.1096 9.73067 12.9101ZM6.75509 10.8941C6.21583 10.15 8.32247 11.6467 7.1005 11.0828C6.97286 11.0494 6.81925 11.0375 6.75509 10.8941ZM8.46817 11.8024C8.58214 11.9062 8.4172 11.1759 8.46817 11.8024ZM9.76886 12.6367C9.86944 12.2798 9.77638 12.8728 9.76886 12.6367ZM6.8377 10.6101C7.15821 10.5415 8.16602 11.1731 7.24054 10.7904C7.1377 10.6767 6.91847 10.7283 6.8377 10.6101ZM9.59015 11.982C9.62432 11.3413 9.78145 11.5992 9.59132 12.0737L9.59015 11.982ZM7.07628 10.3872C7.20694 10.1956 6.7296 9.52102 7.14513 10.1452C7.32462 10.2879 7.66485 10.3842 7.36446 10.4443C7.83692 10.8611 7.24913 10.5571 7.07628 10.3872ZM9.45411 11.7819C9.54434 11.0521 9.5337 12.2094 9.45411 11.7819ZM6.80372 9.7132C6.90333 9.67053 6.85636 9.84611 6.80372 9.7132ZM7.42384 10.0823C7.71827 10.4559 7.5835 9.74738 7.42384 10.0823ZM9.17325 11.0555C9.20626 11.2426 9.17159 10.9269 9.17325 11.0555ZM9.07198 10.8312C9.29786 11.1484 8.82911 10.2321 9.07198 10.8312ZM8.92286 10.4384C9.06134 10.7493 8.88214 10.1908 8.92286 10.4384ZM9.16554 10.044C8.99884 9.75031 9.37589 8.75002 9.41798 9.37043C9.2422 9.85383 9.3672 10.1242 9.48995 9.4759C9.71651 8.96555 9.44102 10.4828 9.16554 10.044ZM9.41485 8.55627C9.48751 8.46711 9.43096 8.66369 9.41485 8.55627ZM8.99845 16.7615C9.01085 16.8164 8.89971 16.6753 8.99845 16.7615ZM9.85626 17.1955C10.3334 17.3179 10.331 17.1212 9.89972 17.0628C9.66778 16.847 8.93585 16.6182 9.59093 17.0361C9.63438 17.1459 9.7714 17.1434 9.85626 17.1955ZM8.16212 16.0702C8.42501 16.2662 9.15235 16.6258 8.53663 16.1448C8.74415 15.9036 8.13927 15.7753 8.33995 15.614C7.8295 15.3017 7.93731 15.3294 8.29483 15.3393C7.68155 15.0651 8.38341 15.0856 8.3504 14.9451C8.11388 14.8984 7.17559 14.528 7.72755 14.9755C7.16641 14.6895 7.59376 15.0821 7.42423 15.0406C6.8505 14.8841 7.93526 15.4776 7.33311 15.3303C7.66222 15.5911 8.21915 15.9985 7.47227 15.6064C7.37384 15.748 8.00675 15.9627 8.16212 16.0702ZM9.05929 16.5857C10.1502 16.9371 8.52442 16.1562 9.05929 16.5857ZM13.652 19.3679C13.666 19.1515 13.5029 19.5526 13.652 19.3679ZM14.124 19.5666C14.3757 19.3227 14.1343 19.9551 14.5411 19.5069C14.5455 19.1861 14.5285 18.9965 14.0736 19.3862C13.9483 19.4558 13.8923 19.7515 14.124 19.5666ZM6.63087 14.8608C6.55352 14.5569 6.08907 14.5584 6.63087 14.8608ZM7.13487 15.191C6.94776 14.8807 6.467 14.9101 7.13487 15.191ZM10.0024 16.9204C10.2824 17.1691 11.2884 17.1029 10.3426 16.951C10.2024 16.7439 9.45304 16.7938 10.0024 16.9204ZM13.9445 19.3549C14.3754 18.9934 13.527 19.5162 13.9445 19.3549ZM14.8406 19.9707C14.8434 19.8547 14.655 20.0216 14.8406 19.9707ZM14.8421 19.8083C15.3192 19.3028 14.3797 19.8382 14.8421 19.8083ZM5.39112 13.8228C4.98438 13.2425 5.13819 12.9817 4.7461 12.5079C4.67188 12.1456 4.07325 11.3234 4.43653 12.1945C4.76915 12.7038 4.86807 13.4926 5.39112 13.8228ZM14.6924 19.6476C15.5702 19.0802 14.332 19.4004 14.6924 19.6476ZM15.3625 19.9102C15.8022 19.5326 15.0845 19.8312 15.3625 19.9102ZM6.48145 14.2194C6.60724 14.0321 6.15645 14.1953 6.48145 14.2194ZM15.2226 19.7309C15.6483 19.4565 15.1245 19.4986 15.1454 19.7562L15.2226 19.7309ZM9.44581 16.0899C9.43116 15.9045 9.2211 16.1056 9.44581 16.0899ZM9.80284 16.2952C9.68936 16.0658 9.62843 16.3313 9.80284 16.2952ZM15.9055 19.9163C16.4508 19.523 15.5749 19.841 15.791 19.9908L15.9055 19.9163ZM15.6967 19.8154C16.1409 19.4432 15.2276 19.9804 15.6967 19.8154ZM16.7636 20.5259C17.0618 20.3262 16.4012 20.4612 16.7636 20.5259ZM6.75479 14.0843C7.1547 14.1739 8.35255 15.069 7.64591 14.1462C7.28389 14.0391 7.50098 13.1543 7.13184 13.311C7.3796 13.7249 7.33565 13.9011 6.81544 13.6402C6.16153 13.3209 6.44796 13.7983 6.57569 13.9299C6.40157 13.9695 6.80606 14.081 6.75479 14.0843ZM4.9335 12.6458C5.00509 12.3498 4.27442 11.0172 4.58848 11.9781C4.70177 12.1794 4.69034 12.5609 4.9335 12.6458ZM8.27667 14.707C8.2669 14.6826 8.07081 14.5348 8.27667 14.707ZM8.7837 14.825C8.78341 14.5113 8.22325 14.6977 8.7837 14.825ZM13.177 17.5946C13.0932 17.3803 12.8457 17.5896 13.177 17.5946ZM13.3879 17.7487C13.3567 17.6287 13.2662 17.7718 13.3879 17.7487ZM15.1292 18.8454C15.2967 18.7217 14.9202 18.8297 15.1292 18.8454ZM5.84337 12.8781C6.32237 12.6926 5.33009 12.7458 5.84337 12.8781ZM12.7901 17.2547C12.7849 16.9446 12.4848 17.3316 12.7901 17.2547ZM5.65411 12.437C5.96173 12.3331 5.36944 12.3686 5.65411 12.437ZM6.54718 12.8697C6.54161 12.7678 6.45274 12.9083 6.54718 12.8697ZM17.4408 19.5498C17.8365 19.4696 18.7382 19.7512 18.884 19.4449C18.4034 19.4332 17.2215 19.1059 17.1655 19.5231L17.2708 19.5396L17.4408 19.5498ZM6.83096 12.9412C6.8378 12.627 6.58585 12.9295 6.83096 12.9412ZM4.48272 11.3123C4.37598 10.7135 4.07706 11.2217 4.48272 11.3123ZM5.04268 11.453C5.04952 11.2608 4.53009 11.28 5.04268 11.453ZM5.3627 11.6102C5.29024 11.7049 5.27013 11.5353 5.3627 11.6102ZM7.37628 12.9019C7.471 12.8149 7.15177 12.8374 7.37628 12.9019ZM5.14942 11.2558C5.09532 10.8035 4.50089 11.188 5.14942 11.2558ZM4.00138 10.5109C3.98507 10.3021 3.88946 10.5896 4.00138 10.5109ZM4.17218 10.3819C4.14425 10.1344 4.0255 10.4133 4.17218 10.3819ZM5.11573 10.945C5.51466 10.7883 4.38897 10.6209 5.03419 10.9154L5.11573 10.945ZM17.7435 18.745C17.9988 18.511 17.419 18.6727 17.7435 18.745ZM19.2691 19.5359C19.3714 19.2331 19.0113 19.5757 19.2691 19.5359ZM5.21222 10.4505C5.25421 10.1577 4.89581 10.5086 5.21222 10.4505ZM3.86983 9.55109C3.79766 9.13771 3.80753 8.41203 4.49727 8.65725C3.57657 8.84006 5.13458 9.80168 4.9378 9.0425C5.32501 9.06145 5.69522 8.81369 5.492 9.18967C6.25479 9.10539 6.7837 8.44396 7.52052 8.53664C8.09444 8.46066 8.72198 8.40305 9.34044 8.17209C9.84893 8.13537 10.3385 7.58791 10.0598 7.2634C9.36632 7.2048 8.64034 7.29152 7.87384 7.44387C7.02452 7.62043 6.25304 7.95588 5.396 8.09992C4.56065 8.21213 5.56397 8.409 5.32472 8.45295C4.88888 8.60412 5.84454 8.70617 5.26827 8.86555C4.91231 8.79787 4.5418 8.67561 4.69386 8.30051C3.89366 8.40432 3.19063 8.73645 3.82276 9.5507L3.86983 9.55109ZM5.79786 8.56916C5.98546 7.87795 6.80304 9.13781 6.10548 8.66096C6.02208 8.59855 5.88507 8.54768 5.79786 8.56916ZM5.83438 8.234C6.10518 8.03234 5.97833 8.34709 5.83438 8.234ZM6.17813 8.23947C6.20264 7.9215 6.96524 8.40783 6.30391 8.35402L6.17813 8.23947ZM6.64854 8.05041C6.82032 7.84973 6.69786 8.22893 6.64854 8.05041ZM6.76886 7.96984C7.05479 7.62619 8.38839 7.75051 7.41231 7.93635C7.15059 7.73937 6.95011 8.05246 6.76876 7.96984M8.50909 7.70158C9.37374 8.03508 8.46563 6.76291 8.50909 7.70158ZM9.00294 7.69885C9.1835 7.2258 9.70352 7.509 9.08643 7.60383C9.09991 7.65412 9.06837 7.84797 9.00294 7.69885ZM5.01739 10.2077C5.55684 9.87736 4.44473 9.92111 5.01739 10.2077ZM5.41622 10.3185C5.60538 10.1174 5.00528 10.2369 5.41622 10.3185ZM4.24102 9.48449C4.54923 9.24768 3.87628 9.39445 4.24102 9.48449ZM20.1694 19.4493C20.1784 19.1746 19.9339 19.5731 20.1694 19.4493ZM18.551 18.3447C18.597 18.0285 18.343 18.3724 18.551 18.3447ZM20.6146 19.5558C21.0455 19.5572 21.9203 19.422 20.9826 19.4224C20.8355 19.4453 20.1253 19.4404 20.6146 19.5558ZM5.7672 10.1246C6.11593 10.1007 6.3129 9.73986 5.69981 9.76066C4.74952 9.66232 6.53809 10.0861 5.57774 9.96486C5.44884 10.0503 5.75968 10.1483 5.7672 10.1246ZM6.07432 10.2801C6.0379 10.0562 5.96651 10.3991 6.07432 10.2801ZM6.43868 9.30852C6.59005 9.12082 6.2293 9.25832 6.43868 9.30852ZM5.27882 7.36965C5.90128 7.15793 6.75245 6.91994 7.04639 7.47394C6.74727 7.11389 6.92569 6.75949 7.20811 7.28586C7.60763 7.81848 7.80763 7.04367 7.54776 6.86496C7.84386 7.23293 8.18057 7.40676 7.746 6.8883C8.21837 6.32014 6.8004 6.96262 6.47813 6.95617C6.32305 7.0258 4.87716 7.32492 5.27882 7.36965ZM5.64356 6.67101C5.99854 6.40305 6.87139 6.83039 6.31134 6.40471C6.25655 6.35637 5.08477 6.72746 5.64356 6.67101ZM6.9378 6.72443C7.35323 6.73508 6.7586 6.16633 7.25362 6.42404C7.17237 6.15842 6.67725 6.10861 6.43526 6.00256C6.29825 6.24533 6.71388 6.72766 6.9378 6.72443ZM5.87052 5.54963C6.01427 5.3548 5.61856 5.64836 5.87052 5.54963ZM6.39952 5.67619C7.06905 5.58742 6.22882 5.38791 6.26456 5.66906L6.39952 5.67619ZM5.41182 4.90344C4.94034 4.28801 6.29835 5.00686 5.81944 4.36242C5.41632 4.04152 5.02891 4.72375 5.41182 4.90344ZM11.4618 8.16213C11.678 7.77883 10.5691 7.64553 11.3161 8.02629C11.385 8.04924 11.3693 8.18869 11.4618 8.16213Z" fill="white"/>
</g>
<defs>
<clipPath id="clip0_1200_3947">
<rect width="25" height="25" fill="white"/>
</clipPath>
</defs>
</svg>
