<svg width="25" height="25" viewBox="0 0 25 25" fill="none" xmlns="http://www.w3.org/2000/svg">
<g clip-path="url(#clip0_1200_3884)">
<path d="M19.1406 0H5.85938C2.62333 0 0 2.62333 0 5.85938V19.1406C0 22.3767 2.62333 25 5.85938 25H19.1406C22.3767 25 25 22.3767 25 19.1406V5.85938C25 2.62333 22.3767 0 19.1406 0Z" fill="#242938"/>
<path d="M14.1537 3.71699L19.6005 3.71094L10.4623 12.8443L8.08076 15.2126L5.37109 12.4996L14.1537 3.71699ZM14.103 11.872C14.1737 11.7786 14.3038 11.8247 14.4025 11.8127L19.5958 11.814L14.8627 16.5425L12.139 13.8354L14.103 11.872Z" fill="#44D1FD"/>
<path d="M9.42383 16.5476L12.1389 13.8359L14.8626 16.543L14.8739 16.555L12.1396 19.264L9.42383 16.5476Z" fill="#1FBCFD"/>
<path d="M12.1406 19.2637L14.875 16.5547L19.5987 21.2831C17.8194 21.2871 16.0407 21.2817 14.2621 21.2857C14.1607 21.3084 14.098 21.2157 14.0333 21.1584L12.1406 19.2637Z" fill="#08589C"/>
</g>
<defs>
<clipPath id="clip0_1200_3884">
<rect width="25" height="25" fill="white"/>
</clipPath>
</defs>
</svg>
