<svg width="25" height="25" viewBox="0 0 25 25" fill="none" xmlns="http://www.w3.org/2000/svg">
<g clip-path="url(#clip0_1200_3955)">
<path d="M19.1406 0H5.85938C2.62333 0 0 2.62333 0 5.85938V19.1406C0 22.3767 2.62333 25 5.85938 25H19.1406C22.3767 25 25 22.3767 25 19.1406V5.85938C25 2.62333 22.3767 0 19.1406 0Z" fill="#242938"/>
<path d="M12.5001 2.92969C7.10732 2.92969 2.73438 7.30176 2.73438 12.6954C2.73438 17.0102 5.53252 20.6707 9.41279 21.962C9.90078 22.0524 10.08 21.7502 10.08 21.4923C10.08 21.2594 10.0709 20.4901 10.0667 19.6741C7.3499 20.2648 6.77666 18.5219 6.77666 18.5219C6.33232 17.3931 5.69229 17.093 5.69229 17.093C4.80625 16.4868 5.75908 16.4993 5.75908 16.4993C6.73975 16.5682 7.25615 17.5057 7.25615 17.5057C8.12715 18.9986 9.54072 18.567 10.0979 18.3175C10.1856 17.6862 10.4387 17.2555 10.718 17.0116C8.54893 16.7646 6.26875 15.9272 6.26875 12.1854C6.26875 11.1191 6.6502 10.2479 7.2749 9.56406C7.17344 9.31807 6.83916 8.3248 7.36943 6.97969C7.36943 6.97969 8.18955 6.71729 10.0558 7.98066C10.8348 7.76436 11.6701 7.65586 12.5001 7.65215C13.33 7.65586 14.1661 7.76436 14.9465 7.98076C16.8104 6.71719 17.6294 6.97979 17.6294 6.97979C18.1609 8.3248 17.8266 9.31816 17.7251 9.56406C18.3513 10.2479 18.7302 11.1191 18.7302 12.1854C18.7302 15.9362 16.4456 16.7621 14.271 17.0038C14.6213 17.3069 14.9334 17.9012 14.9334 18.8123C14.9334 20.1189 14.9221 21.1706 14.9221 21.4923C14.9221 21.7521 15.0979 22.0566 15.5929 21.9607C19.471 20.668 22.2656 17.0087 22.2656 12.6954C22.2656 7.30186 17.8933 2.92969 12.5001 2.92969ZM6.39199 16.8411C6.37051 16.8896 6.29414 16.9042 6.22461 16.8709C6.15371 16.8391 6.11396 16.7729 6.13691 16.7242C6.15791 16.6742 6.23447 16.6604 6.30508 16.6938C6.37607 16.7257 6.4165 16.7925 6.39199 16.8411ZM6.87236 17.2697C6.82578 17.313 6.73467 17.2929 6.67295 17.2246C6.60908 17.1565 6.59707 17.0655 6.64434 17.0217C6.69229 16.9785 6.78066 16.9987 6.84463 17.0668C6.9085 17.1357 6.921 17.2261 6.87236 17.2697ZM7.20186 17.8182C7.14199 17.8598 7.04414 17.8208 6.98369 17.7339C6.92383 17.6471 6.92383 17.543 6.98496 17.5012C7.04561 17.4595 7.14199 17.497 7.20332 17.5832C7.26299 17.6715 7.26299 17.7757 7.20186 17.8182ZM7.75918 18.4533C7.70566 18.5123 7.5917 18.4965 7.5082 18.4159C7.42285 18.3372 7.39902 18.2255 7.45273 18.1664C7.50693 18.1072 7.62158 18.1239 7.70566 18.2038C7.79043 18.2823 7.81631 18.3949 7.75918 18.4533ZM8.47949 18.6677C8.45586 18.7442 8.34609 18.779 8.23545 18.7465C8.1251 18.713 8.05273 18.6234 8.0751 18.5461C8.09805 18.4691 8.2083 18.4329 8.31973 18.4677C8.43008 18.501 8.50244 18.5899 8.47949 18.6677ZM9.29922 18.7587C9.30195 18.8392 9.2082 18.906 9.09209 18.9074C8.97529 18.9101 8.88086 18.8448 8.87959 18.7656C8.87959 18.6843 8.97129 18.6182 9.08799 18.6162C9.2042 18.614 9.29922 18.6786 9.29922 18.7587ZM10.1045 18.7278C10.1185 18.8063 10.0378 18.8871 9.92246 18.9086C9.80908 18.9293 9.7041 18.8808 9.68975 18.8028C9.67568 18.7223 9.75781 18.6416 9.871 18.6207C9.98652 18.6007 10.0898 18.6479 10.1045 18.7278Z" fill="white"/>
</g>
<defs>
<clipPath id="clip0_1200_3955">
<rect width="25" height="25" fill="white"/>
</clipPath>
</defs>
</svg>
