<svg width="25" height="25" viewBox="0 0 25 25" fill="none" xmlns="http://www.w3.org/2000/svg">
<g clip-path="url(#clip0_1201_4043)">
<path d="M19.1406 0H5.85938C2.62333 0 0 2.62333 0 5.85938V19.1406C0 22.3767 2.62333 25 5.85938 25H19.1406C22.3767 25 25 22.3767 25 19.1406V5.85938C25 2.62333 22.3767 0 19.1406 0Z" fill="#242938"/>
<g clip-path="url(#clip1_1201_4043)">
<path d="M4.70472 12.9063V10.832H5.17844V13.0648C5.20046 13.2448 5.18426 13.4271 5.13082 13.6009C5.07737 13.7748 4.98777 13.9366 4.86736 14.0767C4.64359 14.2609 4.35676 14.3606 4.06118 14.3567L4.01172 14.0194C4.20234 14.0196 4.38625 13.9523 4.52787 13.8305C4.65513 13.6889 4.70465 13.4966 4.70465 12.9064M8.23769 12.6403C8.23769 12.8933 8.23769 13.1192 8.25893 13.3149H7.83818L7.8099 12.9135C7.7219 13.0555 7.59606 13.1728 7.44516 13.2534C7.29427 13.3339 7.1237 13.3749 6.9508 13.3722C6.54067 13.3722 6.05281 13.1597 6.05281 12.2929V10.8527H6.52653V12.2019C6.52653 12.6707 6.67856 12.9843 7.10635 12.9843C7.19435 12.9852 7.28165 12.9694 7.36314 12.9376C7.44463 12.9059 7.51866 12.859 7.58089 12.7996C7.64312 12.7403 7.69231 12.6696 7.72555 12.5919C7.7588 12.5141 7.77545 12.4309 7.77452 12.3469V10.8358H8.24824V12.6268L8.23769 12.6403ZM9.13568 11.6552C9.13568 11.3415 9.13568 11.0852 9.11444 10.8524H9.53864L9.55989 11.274C9.65444 11.1217 9.79052 10.9968 9.95364 10.9124C10.1168 10.8281 10.3008 10.7875 10.4862 10.7951C11.1155 10.7951 11.5892 11.2977 11.5892 12.0464C11.5892 12.9301 11.02 13.3686 10.4049 13.3686C10.2475 13.3753 10.0909 13.3431 9.95025 13.2751C9.80965 13.2071 9.68981 13.1057 9.60231 12.9807V14.3298H9.13562L9.13568 11.6552ZM9.60231 12.3129C9.60357 12.3741 9.61067 12.435 9.62348 12.495C9.66358 12.6447 9.75489 12.7775 9.88296 12.8722C10.011 12.9669 10.1685 13.0181 10.3306 13.0178C10.829 13.0178 11.1225 12.6299 11.1225 12.0666C11.1225 11.5742 10.8467 11.1526 10.3482 11.1526C10.1509 11.168 9.96635 11.2516 9.82902 11.3876C9.6917 11.5235 9.61106 11.7026 9.60224 11.8913L9.60231 12.3129ZM12.4333 10.8502L13.0024 12.3039C13.0633 12.4697 13.1187 12.6373 13.1686 12.8064C13.2181 12.658 13.2711 12.4691 13.3348 12.2938L13.8509 10.8502H14.3494L13.6423 12.604C13.2888 13.4472 13.0731 13.8823 12.7479 14.1454C12.584 14.2882 12.3843 14.3881 12.168 14.4355L12.0514 14.0577C12.2026 14.0103 12.3429 13.9359 12.465 13.8385C12.6375 13.7044 12.7744 13.5334 12.8646 13.3393C12.8838 13.3058 12.897 13.2692 12.9034 13.2314C12.8994 13.1907 12.8887 13.1509 12.8716 13.1134L11.91 10.8435H12.4261L12.4333 10.8502ZM15.6071 10.1426V10.8508H16.2859V11.1881H15.6071V12.5171C15.6071 12.8206 15.699 12.996 15.9606 12.996C16.0535 12.9975 16.1462 12.9873 16.2363 12.9656L16.2576 13.3029C16.1224 13.3476 15.9798 13.3681 15.8368 13.3636C15.7422 13.3693 15.6473 13.3554 15.5588 13.3228C15.4703 13.2901 15.3903 13.2396 15.3242 13.1747C15.1802 12.991 15.1145 12.762 15.1403 12.5339V11.1848H14.7374V10.8474H15.1474V10.247L15.6071 10.1426ZM17.1585 12.1615C17.1489 12.2758 17.1655 12.3908 17.2071 12.4985C17.2486 12.6062 17.3142 12.704 17.3992 12.7851C17.4843 12.8663 17.5868 12.9288 17.6997 12.9685C17.8125 13.0081 17.9331 13.0239 18.053 13.0147C18.2955 13.0199 18.5364 12.9762 18.7601 12.8866L18.8414 13.2239C18.567 13.3317 18.2719 13.3834 17.9752 13.3756C17.8022 13.3869 17.6288 13.3624 17.4667 13.3037C17.3046 13.2451 17.1577 13.1536 17.0362 13.0357C16.9146 12.9178 16.8212 12.7762 16.7624 12.6207C16.7036 12.4651 16.6807 12.2992 16.6954 12.1344C16.6954 11.3924 17.1585 10.8056 17.9151 10.8056C18.7636 10.8056 18.9757 11.5138 18.9757 11.9658C18.9803 12.0355 18.9803 12.1052 18.9757 12.1749H17.1479L17.1585 12.1615ZM18.5444 11.8241C18.5581 11.734 18.5513 11.642 18.5246 11.5546C18.4979 11.4671 18.4518 11.3861 18.3895 11.3171C18.3271 11.248 18.25 11.1925 18.1633 11.1543C18.0766 11.1161 17.9823 11.0961 17.8868 11.0956C17.6926 11.109 17.5106 11.1912 17.3765 11.326C17.2425 11.4607 17.166 11.6384 17.1621 11.8241H18.5444ZM19.6945 11.6171C19.6945 11.327 19.6945 11.0775 19.6733 10.8481H20.0975V11.3305H20.1188C20.1633 11.1816 20.2553 11.0497 20.382 10.9529C20.5087 10.8562 20.6638 10.7996 20.8258 10.7908C20.8704 10.7852 20.9156 10.7852 20.9602 10.7908V11.2124C20.9062 11.2065 20.8516 11.2065 20.7976 11.2124C20.6371 11.2183 20.4843 11.2798 20.3679 11.3853C20.2514 11.4908 20.1792 11.6332 20.1647 11.7858C20.1516 11.8548 20.1445 11.9247 20.1435 11.9949V13.3069H19.6768V11.6205L19.6945 11.6171Z" fill="white"/>
<path d="M19.4884 4.07426C19.5029 4.30084 19.4464 4.52641 19.3261 4.72224C19.2058 4.91807 19.0271 5.07529 18.8127 5.17389C18.5984 5.27248 18.3582 5.30797 18.1226 5.27585C17.8871 5.24373 17.6669 5.14544 17.4901 4.99351C17.3133 4.84158 17.1879 4.64289 17.1299 4.42274C17.0719 4.20258 17.0839 3.97094 17.1644 3.75732C17.2448 3.54369 17.3901 3.35776 17.5818 3.22319C17.7734 3.08863 18.0027 3.01153 18.2404 3.00171C18.3963 2.99352 18.5523 3.0148 18.6995 3.06434C18.8467 3.11388 18.9822 3.1907 19.0982 3.29038C19.2142 3.39005 19.3084 3.51062 19.3753 3.64515C19.4423 3.77968 19.4808 3.92551 19.4884 4.07426Z" fill="#767677"/>
<path d="M12.4966 17.2839C9.3147 17.2839 6.51821 16.1945 5.07227 14.5856C5.63332 16.033 6.64566 17.2816 7.97302 18.1634C9.30039 19.0452 10.8791 19.518 12.4966 19.518C14.114 19.518 15.6927 19.0452 17.0201 18.1634C18.3475 17.2816 19.3598 16.033 19.9208 14.5856C18.4784 16.1945 15.6926 17.2839 12.4966 17.2839ZM12.4966 6.82204C15.6784 6.82204 18.4749 7.9115 19.9208 9.52029C19.3598 8.07296 18.3475 6.82434 17.0201 5.9425C15.6927 5.06065 14.1141 4.5879 12.4966 4.58789C10.8791 4.5879 9.30038 5.06065 7.97302 5.9425C6.64565 6.82434 5.63332 8.07296 5.07227 9.52029C6.51821 7.90814 9.30062 6.82204 12.4966 6.82204Z" fill="#F37726"/>
<path d="M8.11589 20.4146C8.13456 20.7 8.06374 20.9843 7.91246 21.2312C7.76119 21.478 7.53631 21.6763 7.26647 21.8008C6.99663 21.9253 6.69404 21.9704 6.39727 21.9302C6.1005 21.8901 5.82297 21.7666 5.60005 21.5754C5.37713 21.3843 5.2189 21.1341 5.14553 20.8568C5.07216 20.5796 5.08697 20.2878 5.18807 20.0186C5.28916 19.7494 5.47197 19.515 5.71321 19.3452C5.95444 19.1755 6.24317 19.0781 6.54262 19.0655C6.73879 19.0555 6.9351 19.0825 7.12035 19.1448C7.30559 19.2072 7.47613 19.3038 7.62224 19.4291C7.76834 19.5544 7.88713 19.7059 7.97184 19.875C8.05654 20.0441 8.10549 20.2275 8.11589 20.4146Z" fill="#9E9E9E"/>
<path d="M5.4349 6.45614C5.26343 6.46068 5.09438 6.41674 4.94901 6.32985C4.80365 6.24297 4.68846 6.11702 4.61793 5.96784C4.54741 5.81866 4.52469 5.65291 4.55264 5.49145C4.58059 5.32999 4.65797 5.18001 4.77503 5.06039C4.89209 4.94077 5.04362 4.85685 5.21055 4.81917C5.37747 4.78149 5.55235 4.79174 5.71319 4.84864C5.87403 4.90553 6.01364 5.00653 6.11447 5.13893C6.21529 5.27132 6.27284 5.42921 6.27985 5.59272C6.28656 5.81379 6.20159 6.02845 6.04339 6.19011C5.88519 6.35177 5.66653 6.44736 5.4349 6.45614Z" fill="#616262"/>
</g>
</g>
<defs>
<clipPath id="clip0_1201_4043">
<rect width="25" height="25" fill="white"/>
</clipPath>
<clipPath id="clip1_1201_4043">
<rect width="17" height="19" fill="white" transform="translate(4 3)"/>
</clipPath>
</defs>
</svg>
