<svg width="25" height="25" viewBox="0 0 25 25" fill="none" xmlns="http://www.w3.org/2000/svg">
<g clip-path="url(#clip0_1200_3982)">
<path d="M19.1406 0H5.85938C2.62333 0 0 2.62333 0 5.85938V19.1406C0 22.3767 2.62333 25 5.85938 25H19.1406C22.3767 25 25 22.3767 25 19.1406V5.85938C25 2.62333 22.3767 0 19.1406 0Z" fill="#242938"/>
<g clip-path="url(#clip1_1200_3982)">
<path d="M22 22H3V3H22V22Z" fill="#D00000"/>
<path d="M8.32031 17.6654C8.32031 17.6803 8.33516 17.6951 8.33516 17.71L8.66172 18.0365C8.67656 18.0514 8.69141 18.0514 8.70625 18.0514H9.81953C9.83438 18.0514 9.84922 18.0365 9.86406 18.0365L10.1906 17.71C10.2055 17.6951 10.2055 17.6803 10.2055 17.6654V14.1326C10.2055 14.1178 10.2203 14.1029 10.2203 14.0881L11.6305 12.7373C11.6453 12.7225 11.6602 12.7225 11.6602 12.7373L15.2375 18.0217C15.2523 18.0365 15.2672 18.0365 15.282 18.0365H16.8555C16.8703 18.0365 16.8852 18.0217 16.9 18.0068L17.182 17.4576V17.4131L13.0109 11.3717C12.9961 11.3568 13.0109 11.342 13.0109 11.3271L16.8555 7.49746C16.8703 7.48262 16.8703 7.46777 16.8703 7.45293V7.37871C16.8703 7.36387 16.8703 7.34902 16.8555 7.33418L16.6328 6.82949C16.6328 6.81465 16.618 6.7998 16.6031 6.7998H15.0445C15.0297 6.7998 15.0148 6.81465 15 6.81465L10.2352 11.6092C10.2203 11.624 10.2203 11.6092 10.2203 11.5943V7.21543C10.2203 7.20059 10.2055 7.18574 10.2055 7.1709L9.87891 6.82949C9.86406 6.81465 9.84922 6.81465 9.83438 6.81465H8.70625C8.69141 6.81465 8.67656 6.82949 8.66172 6.82949L8.33516 7.18574C8.32031 7.20059 8.32031 7.21543 8.32031 7.23027V17.6654Z" fill="white"/>
</g>
</g>
<defs>
<clipPath id="clip0_1200_3982">
<rect width="25" height="25" fill="white"/>
</clipPath>
<clipPath id="clip1_1200_3982">
<rect x="3" y="3" width="19" height="19" rx="2" fill="white"/>
</clipPath>
</defs>
</svg>
