<svg width="25" height="25" viewBox="0 0 25 25" fill="none" xmlns="http://www.w3.org/2000/svg">
<g clip-path="url(#clip0_1200_3900)">
<path d="M19.1406 0H5.85938C2.62333 0 0 2.62333 0 5.85938V19.1406C0 22.3767 2.62333 25 5.85938 25H19.1406C22.3767 25 25 22.3767 25 19.1406V5.85938C25 2.62333 22.3767 0 19.1406 0Z" fill="#242938"/>
<path d="M12.4296 2.83203C7.47139 2.83203 7.78096 4.98223 7.78096 4.98223L7.78652 7.20977H12.5181V7.87871H5.90713C5.90713 7.87871 2.73438 7.51875 2.73438 12.5216C2.73438 17.5244 5.50361 17.3472 5.50361 17.3472H7.15635V15.0256C7.15635 15.0256 7.06728 12.2563 9.88145 12.2563H14.5742C14.5742 12.2563 17.2108 12.2989 17.2108 9.70811V5.42441C17.2108 5.42441 17.6111 2.83203 12.4296 2.83203ZM9.82061 4.32998C9.93242 4.32989 10.0432 4.35185 10.1465 4.3946C10.2498 4.43734 10.3437 4.50005 10.4227 4.57911C10.5018 4.65818 10.5645 4.75206 10.6073 4.85538C10.65 4.9587 10.672 5.06943 10.6719 5.18125C10.672 5.29306 10.65 5.40378 10.6072 5.50709C10.5645 5.6104 10.5018 5.70427 10.4227 5.78333C10.3436 5.86238 10.2498 5.92507 10.1465 5.96782C10.0431 6.01056 9.93241 6.03251 9.82061 6.03242C9.70881 6.0325 9.59809 6.01054 9.49479 5.96779C9.39148 5.92504 9.29762 5.86235 9.21856 5.78329C9.13951 5.70424 9.07682 5.61037 9.03407 5.50707C8.99132 5.40377 8.96936 5.29305 8.96943 5.18125C8.96934 5.06944 8.9913 4.95871 9.03404 4.8554C9.07678 4.75208 9.13947 4.65821 9.21853 4.57915C9.29758 4.50008 9.39145 4.43738 9.49476 4.39462C9.59807 4.35187 9.7088 4.3299 9.82061 4.32998Z" fill="url(#paint0_linear_1200_3900)"/>
<path d="M12.5698 22.262C17.528 22.262 17.2184 20.1119 17.2184 20.1119L17.2128 17.8843H12.4813V17.2154H19.0922C19.0922 17.2154 22.265 17.5753 22.265 12.5724C22.265 7.56943 19.4957 7.74687 19.4957 7.74687H17.843V10.0685C17.843 10.0685 17.9321 12.8377 15.1179 12.8377H10.4251C10.4251 12.8377 7.78842 12.795 7.78842 15.3858V19.6696C7.78842 19.6696 7.38813 22.262 12.5698 22.262ZM15.1788 20.7641C15.0669 20.7641 14.9562 20.7422 14.8529 20.6995C14.7496 20.6567 14.6557 20.594 14.5766 20.515C14.4976 20.4359 14.4349 20.342 14.3921 20.2387C14.3494 20.1354 14.3274 20.0247 14.3275 19.9129C14.3274 19.8011 14.3493 19.6903 14.3921 19.587C14.4348 19.4837 14.4975 19.3898 14.5766 19.3107C14.6557 19.2317 14.7496 19.169 14.8529 19.1262C14.9562 19.0835 15.0669 19.0615 15.1788 19.0616C15.2906 19.0615 15.4013 19.0835 15.5046 19.1262C15.6079 19.169 15.7018 19.2317 15.7809 19.3107C15.86 19.3898 15.9227 19.4837 15.9654 19.587C16.0082 19.6903 16.0301 19.8011 16.03 19.9129C16.0301 20.0247 16.0081 20.1354 15.9654 20.2387C15.9226 20.342 15.8599 20.4359 15.7809 20.515C15.7018 20.594 15.6079 20.6567 15.5046 20.6995C15.4013 20.7422 15.2906 20.7641 15.1788 20.7641Z" fill="url(#paint1_linear_1200_3900)"/>
</g>
<defs>
<linearGradient id="paint0_linear_1200_3900" x1="4.61133" y1="4.57969" x2="14.2903" y2="14.1621" gradientUnits="userSpaceOnUse">
<stop stop-color="#387EB8"/>
<stop offset="1" stop-color="#366994"/>
</linearGradient>
<linearGradient id="paint1_linear_1200_3900" x1="10.5517" y1="10.7334" x2="20.9458" y2="20.5593" gradientUnits="userSpaceOnUse">
<stop stop-color="#FFE052"/>
<stop offset="1" stop-color="#FFC331"/>
</linearGradient>
<clipPath id="clip0_1200_3900">
<rect width="25" height="25" fill="white"/>
</clipPath>
</defs>
</svg>
