<svg width="40" height="40" viewBox="0 0 40 40" fill="none" xmlns="http://www.w3.org/2000/svg">
<rect width="40" height="40" rx="10" fill="#DDF5FA"/>
<path fill-rule="evenodd" clip-rule="evenodd" d="M11 12.9C11 12.6613 11.0948 12.4324 11.2636 12.2636C11.4324 12.0948 11.6613 12 11.9 12H28.0998C28.3385 12 28.5674 12.0948 28.7362 12.2636C28.905 12.4324 28.9998 12.6613 28.9998 12.9C28.9998 13.1387 28.905 13.3676 28.7362 13.5364C28.5674 13.7052 28.3385 13.8 28.0998 13.8V23.6999C28.0998 23.9386 28.005 24.1675 27.8362 24.3363C27.6674 24.505 27.4385 24.5999 27.1998 24.5999H23.0482L24.4539 28.8154C24.5294 29.0419 24.5117 29.2891 24.4049 29.5026C24.298 29.7161 24.1108 29.8785 23.8843 29.9539C23.6577 30.0293 23.4105 30.0117 23.197 29.9048C22.9835 29.798 22.8212 29.6107 22.7458 29.3842L21.1519 24.5999H18.8497L17.2549 29.3842C17.1795 29.6107 17.0172 29.798 16.8037 29.9048C16.5902 30.0117 16.343 30.0293 16.1164 29.9539C15.8899 29.8785 15.7026 29.7161 15.5958 29.5026C15.489 29.2891 15.4713 29.0419 15.5467 28.8154L16.9516 24.5999H12.8C12.5613 24.5999 12.3324 24.505 12.1636 24.3363C11.9948 24.1675 11.9 23.9386 11.9 23.6999V13.8C11.6613 13.8 11.4324 13.7052 11.2636 13.5364C11.0948 13.3676 11 13.1387 11 12.9ZM19.5994 15.7512C19.4639 15.6607 19.3063 15.6088 19.1436 15.6009C18.9808 15.593 18.819 15.6294 18.6753 15.7063C18.5317 15.7831 18.4116 15.8976 18.3278 16.0373C18.2441 16.1771 18.1999 16.337 18.1999 16.4999V20.0999C18.1999 20.2628 18.2441 20.4227 18.3278 20.5625C18.4116 20.7023 18.5317 20.8167 18.6753 20.8936C18.819 20.9705 18.9808 21.0069 19.1436 20.999C19.3063 20.9911 19.4639 20.9391 19.5994 20.8487L22.2994 19.0487C22.4226 18.9665 22.5237 18.8552 22.5936 18.7246C22.6635 18.5939 22.7001 18.4481 22.7001 18.2999C22.7001 18.1518 22.6635 18.0059 22.5936 17.8753C22.5237 17.7447 22.4226 17.6333 22.2994 17.5511L19.5994 15.7512ZM20.1772 18.2999L19.9999 18.4178V18.1829L20.1772 18.2999Z" fill="#0C6170"/>
</svg>
