<svg width="25" height="25" viewBox="0 0 25 25" fill="none" xmlns="http://www.w3.org/2000/svg">
<g clip-path="url(#clip0_1200_3915)">
<path d="M19.1406 0H5.85938C2.62333 0 0 2.62333 0 5.85938V19.1406C0 22.3767 2.62333 25 5.85938 25H19.1406C22.3767 25 25 22.3767 25 19.1406V5.85938C25 2.62333 22.3767 0 19.1406 0Z" fill="#242938"/>
<path d="M12.1316 22.3633L8.8499 20.3994V8.81934L3.90625 11.7636L3.91826 7.37744L12.1316 2.53906V22.3633ZM12.8695 2.53906V22.3633L16.1517 20.3994V14.8224L18.6292 16.2983L18.6145 12.4837L16.1517 11.034V8.81934L21.0938 11.7636L21.0818 7.37744L12.8695 2.53906Z" fill="#FF6F00"/>
</g>
<defs>
<clipPath id="clip0_1200_3915">
<rect width="25" height="25" fill="white"/>
</clipPath>
</defs>
</svg>
