<svg width="25" height="25" viewBox="0 0 25 25" fill="none" xmlns="http://www.w3.org/2000/svg">
<g clip-path="url(#clip0_1200_3963)">
<path d="M19.1406 0H5.85938C2.62333 0 0 2.62333 0 5.85938V19.1406C0 22.3767 2.62333 25 5.85938 25H19.1406C22.3767 25 25 22.3767 25 19.1406V5.85938C25 2.62333 22.3767 0 19.1406 0Z" fill="#242938"/>
<path d="M3.29195 9.78608C3.29195 9.78608 2.82955 9.45278 3.38443 9.00776L4.67701 7.8519C4.67701 7.8519 5.04693 7.46274 5.43795 7.80181L17.3666 16.833V21.1636C17.3666 21.1636 17.3608 21.8437 16.488 21.7685L3.29195 9.78608Z" fill="#2489CA"/>
<path d="M6.3674 12.5771L3.2928 15.3724C3.2928 15.3724 2.97678 15.6074 3.2928 16.0274L4.72024 17.3258C4.72024 17.3258 5.0593 17.6899 5.56018 17.2757L8.81975 14.8041L6.3674 12.5771Z" fill="#1070B3"/>
<path d="M11.7658 12.6006L17.4046 8.29496L17.368 3.98744C17.368 3.98744 17.1271 3.0473 16.3238 3.53666L8.82031 10.3659L11.7658 12.6006Z" fill="#0877B9"/>
<path d="M16.4879 21.7743C16.8154 22.1095 17.2123 21.9997 17.2123 21.9997L21.6065 19.8344C22.169 19.451 22.09 18.9752 22.09 18.9752V6.04485C22.09 5.47649 21.5082 5.28011 21.5082 5.28011L17.6997 3.44417C16.8675 2.92981 16.3223 3.53665 16.3223 3.53665C16.3223 3.53665 17.0234 3.03196 17.3664 3.98743V21.0846C17.3669 21.2012 17.3412 21.3164 17.2913 21.4218C17.1911 21.6241 16.9734 21.8128 16.4514 21.7338L16.4879 21.7743Z" fill="#3C99D4"/>
</g>
<defs>
<clipPath id="clip0_1200_3963">
<rect width="25" height="25" fill="white"/>
</clipPath>
</defs>
</svg>
